  
http://www.imdb.com/title/tt1483013/



A veteran assigned to extract Earth's remaining resources begins to question what he knows about his mission and himself. 



Director:
 Joseph Kosinski 

Writers:
 Joseph Kosinski ,Karl Gajdusek 

Stars:
 Tom Cruise, Morgan Freeman, Andrea Riseborough 

Genres:
  Action |  Adventure |  Sci-Fi |  Thriller 

Country:
 USA 

Language:
 English 


Format                                   : AVI
Format/Info                              : Audio Video Interleave
Format profile                           : OpenDML
Format settings                          : rec
File size                                : 1.90 GiB
Duration                                 : 1h 55mn
Overall bit rate                         : 2 356 Kbps
Writing application                      : AVI-Mux GUI 1.17.8.3, Feb 16 201019:42:50

Video
ID                                       : 0
Format                                   : MPEG-4 Visual
Format profile                           : Advanced Simple@L5
Format settings, BVOP                    : 2
Format settings, QPel                    : No
Format settings, GMC                     : No warppoints
Format settings, Matrix                  : Default (MPEG)
Codec ID                                 : XVID
Codec ID/Hint                            : XviD
Duration                                 : 1h 55mn
Bit rate                                 : 2 158 Kbps
Width                                    : 720 pixels
Height                                   : 304 pixels
Display aspect ratio                     : 2.35:1
Frame rate                               : 29.970 fps
Color space                              : YUV
Chroma subsampling                       : 4:2:0
Bit depth                                : 8 bits
Scan type                                : Progressive
Compression mode                         : Lossy
Bits/(Pixel*Frame)                       : 0.329
Stream size                              : 1.74 GiB (92%)
Writing library                          : XviD 1.2.1 (UTC 2008-12-04)

Audio
ID                                       : 1
Format                                   : AC-3
Format/Info                              : Audio Coding 3
Mode extension                           : CM (complete main)
Format settings, Endianness              : Big
Codec ID                                 : 2000
Duration                                 : 1h 55mn
Bit rate mode                            : Constant
Bit rate                                 : 192 Kbps
Channel(s)                               : 2 channels
Channel positions                        : Front: L R
Sampling rate                            : 48.0 KHz
Bit depth                                : 16 bits
Compression mode                         : Lossy
Stream size                              : 158 MiB (8%)
Alignment                                : Aligned on interleaves
Interleave, duration                     : 64 ms (1.92 video frames)
Interleave, preload duration             : 192 ms
Title                                    : audio-eng



 
http://www.shotpix.com/images/96831709429247314310.png

 
http://www.shotpix.com/images/13772823396124499732.png 
http://www.shotpix.com/images/43100368544524811388.png

